HIERARCHY
ROOT PELVIS
{
    OFFSET [0, 0, 0]
    CHANNELS 6 Xposition Yposition Zposition Zrotation Xrotation Yrotation
    JOINT SPINE_NAVAL
    {
        OFFSET [-1.8624025987445023, -15.56283938170459, -4.882280244614236]
        CHANNELS 3 Zrotation Xrotation Yrotation
        JOINT SPINE_CHEST
        {
            OFFSET [0.13680768405058075, -13.014416240772798, -1.6879051462313157]
            CHANNELS 3 Zrotation Xrotation Yrotation
            JOINT NECK
            {
                OFFSET [1.5412654107579442, -19.902495759177704, -0.7494670419712861]
                CHANNELS 3 Zrotation Xrotation Yrotation
                JOINT HEAD
                {
                    OFFSET [-0.9581886209233943, -6.9503943579717244, -2.695512454014704]
                    CHANNELS 3 Zrotation Xrotation Yrotation
                    JOINT NOSE
                    {
                        OFFSET [-9.96830460294748, -6.902509924923862, -8.449794120633896]
                        CHANNELS 3 Zrotation Xrotation Yrotation
                    }
                    JOINT EYE_LEFT
                    {
                        OFFSET [-5.316042395647017, -8.986952621268394, -9.177428141077343]
                        CHANNELS 3 Zrotation Xrotation Yrotation
                    }
                    JOINT EAR_LEFT
                    {
                        OFFSET [5.770296214356428, -6.1362447081869504, -6.937967956615694]
                        CHANNELS 3 Zrotation Xrotation Yrotation
                    }
                    JOINT EYE_RIGHT
                    {
                        OFFSET [-9.54998331349243, -9.345276696575503, -4.389364153135745]
                        CHANNELS 3 Zrotation Xrotation Yrotation
                    }
                    JOINT EAR_RIGHT
                    {
                        OFFSET [-5.259703654494725, -6.996290783642564, 6.620078980693592]
                        CHANNELS 3 Zrotation Xrotation Yrotation
                    }
                }
            }
            JOINT CLAVICLE_LEFT
            {
                OFFSET [3.5795548333343348, -16.59061457957459, -0.7425384691241561]
                CHANNELS 3 Zrotation Xrotation Yrotation
                JOINT SHOULDER_LEFT
                {
                    OFFSET [10.045270149421754, 4.024831292348537, -7.476274040460794]
                    CHANNELS 3 Zrotation Xrotation Yrotation
                    JOINT ELBOW_LEFT
                    {
                        OFFSET [3.1381710711461466, 25.22704991034994, -0.5987157351417807]
                        CHANNELS 3 Zrotation Xrotation Yrotation
                        JOINT WRIST_LEFT
                        {
                            OFFSET [0.3255735099614512, 21.281109261330187, -1.5835984846100928]
                            CHANNELS 3 Zrotation Xrotation Yrotation
                            JOINT HAND_LEFT
                            {
                                OFFSET [1.4518834133139364, 7.702443371306643, 4.1173736161983925]
                                CHANNELS 3 Zrotation Xrotation Yrotation
                                JOINT HANDTIP_LEFT
                                {
                                    OFFSET [0.017971372253136053, 6.912692266709168, 7.143854528202866]
                                    CHANNELS 3 Zrotation Xrotation Yrotation
                                }
                            }
                            JOINT THUMB_LEFT
                            {
                                OFFSET [-4.346395839445307, 10.978401182472584, 6.224499488069057]
                                CHANNELS 3 Zrotation Xrotation Yrotation
                            }
                        }
                    }
                }
            }
            JOINT CLAVICLE_RIGHT
            {
                OFFSET [-0.4926540483477524, -16.85043511433544, 1.5935064747236538]
                CHANNELS 3 Zrotation Xrotation Yrotation
                JOINT SHOULDER_RIGHT
                {
                    OFFSET [-10.758463879117107, 3.956191532192854, 3.871878083651552]
                    CHANNELS 3 Zrotation Xrotation Yrotation
                    JOINT ELBOW_RIGHT
                    {
                        OFFSET [-4.266464828225361, 23.940013652406726, 8.936463465710176]
                        CHANNELS 3 Zrotation Xrotation Yrotation
                        JOINT WRIST_RIGHT
                        {
                            OFFSET [-3.4536289555492274, 21.009633453297738, -3.6660515313393205]
                            CHANNELS 3 Zrotation Xrotation Yrotation
                            JOINT HAND_RIGHT
                            {
                                OFFSET [-1.1504109675311618, 9.249288303125986, 1.8647264412603022]
                                CHANNELS 3 Zrotation Xrotation Yrotation
                                JOINT HANDTIP_RIGHT
                                {
                                    OFFSET [4.714307901621499, 8.46144042969385, -1.0461361197294252]
                                    CHANNELS 3 Zrotation Xrotation Yrotation
                                }
                            }
                            JOINT THUMB_RIGHT
                            {
                                OFFSET [2.346547662167204, 13.038066016571916, -2.8486242408388023]
                                CHANNELS 3 Zrotation Xrotation Yrotation
                            }
                        }
                    }
                }
            }
        }
    }
    JOINT HIP_LEFT
    {
        OFFSET [7.4362688643811765, 0.3249160040754777, -3.8723608848215463]
        CHANNELS 3 Zrotation Xrotation Yrotation
        JOINT KNEE_LEFT
        {
            OFFSET [1.5799228958690321, 36.78319776825116, 1.0740035771356418]
            CHANNELS 3 Zrotation Xrotation Yrotation
            JOINT ANKLE_LEFT
            {
                OFFSET [3.9752671774926043, 32.13889576222717, 13.81074251023739]
                CHANNELS 3 Zrotation Xrotation Yrotation
                JOINT FOOT_LEFT
                {
                    OFFSET [-0.4169188238063768, 10.836579083623093, -13.392496041591784]
                    CHANNELS 3 Zrotation Xrotation Yrotation
                }
            }
        }
    }
    JOINT HIP_RIGHT
    {
        OFFSET [-6.705617075914613, -0.2926789997405024, 3.491918979438111]
        CHANNELS 3 Zrotation Xrotation Yrotation
        JOINT KNEE_RIGHT
        {
            OFFSET [1.714833018001407, 35.65442600529347, 8.940286211479446]
            CHANNELS 3 Zrotation Xrotation Yrotation
            JOINT ANKLE_RIGHT
            {
                OFFSET [5.465327700951001, 33.38193098012509, 11.018601660980693]
                CHANNELS 3 Zrotation Xrotation Yrotation
                JOINT FOOT_RIGHT
                {
                    OFFSET [-9.976023026776371, 9.915977548521752, -7.327260577837592]
                    CHANNELS 3 Zrotation Xrotation Yrotation
                }
            }
        }
    }
}
MOTION
Frames: 4
Frame Time: 0.01
35.267723759053965 -7.516456378283683 257.60645584460843 19.815641205117288 3.858142241474348 -14.318192352863152 25.406453770632798 5.563712370799363 -16.448896801415643 32.979294680143305 6.609023446519955 -15.662206616183239 31.879815779467105 5.949360416201419 -17.730203110508548 6.015310191821494 -5.131534274700827 6.504409308146005 25.98419809661451 -0.36283386038714815 -16.8120448857895 16.13344011706742 1.2860574093594508 0.1460209592275577 -1.2287346973771776 -10.052986884099203 36.0336745673705 -76.29300337869589 -2.621464327433692 24.350548576077117 0 0 0 0 0 0 2.7414618056959643 7.980206954197752 -0.07670080074443648 16.21517535137342 7.489070086668758 -10.382314109508032 4.061377812430908 -0.8123819202240598 -15.03684003716533 -36.74181292772061 -1.3100449765853746 -1.1962026150963805 10.291019269022392 -0.35839263863209175 44.458291086570306 0 0 0 0 0 0 -23.474130201632647 2.9414445308638935 10.628727400163736 -0.9490783130016996 1.9871649580165658 -4.514681106752938 -12.684087076475159 6.542734805207031 7.136985284050395 0 0 0 -26.343596569258384 2.003790458728923 20.404833250687656 4.017228818110027 0.28017020394360953 -3.0586990732137638 -10.2872544595512 -3.4793169557487227 7.726197066289003 0 0 0 20.458189419510056 -5.632329663139383 -18.33577361907293 0 0 0 0 0 0 0 0 0 0 0 0 0 0 0 
35.08534418858094 -7.791314367425551 257.48938346691267 19.493809258261162 3.715258954494689 -14.00698674190395 25.133913757894273 5.426756627817681 -16.178991847175624 32.55383327989479 6.432667298139095 -15.389445688990769 31.44189567828661 5.771681252847968 -17.46961504344713 5.696784244290788 -4.6477752823918035 6.234387451833786 25.20083399911816 -0.5077725360635997 -16.09362882191563 15.911689113900948 1.270969795732543 0.2505903548985363 0.3213243880466262 -10.654319793112585 34.72197947922381 -74.28694620627195 -3.0218010282708687 24.099967423612277 0 0 0 0 0 0 2.790380707716937 7.766549680898228 0.1883456100542232 15.405545387390807 7.136694694668441 -10.104156245392623 4.469093675481203 -0.7117946809641501 -15.24702371207269 -35.92743430271593 -1.2754635551929518 -1.6791026826107296 10.41343790856992 -1.1806075452365463 43.81509932020402 0 0 0 0 0 0 -23.101437106860697 2.8283983613560264 10.273788032276702 -1.0058309673296135 1.9473703006415632 -4.4000079237458305 -13.187851062489852 6.513724550780618 7.1199869887129275 0 0 0 -25.928114757612462 1.8962185871575978 19.999431303329096 4.010366158723994 0.26828791276634917 -3.0200324212588834 -10.761453921674676 -3.7834156474961755 7.852699784233389 0 0 0 19.548999778976796 -5.884356340463571 -17.284544291107732 0 0 0 0 0 0 0 0 0 0 0 0 0 0 0 
34.902964618107916 -8.066172356567392 257.37231108921685 19.17305859270114 3.5749899302340293 -13.696957349864185 24.862270228436834 5.291903516451238 -15.91021941661941 32.13000654275417 6.259395150472123 -15.117314665789918 31.005804310242365 5.597079144139707 -17.2093759925475 5.378009452855217 -4.168469450860073 5.963315472026492 24.419571764565646 -0.6419786493303472 -15.378081699502046 15.691196999949659 1.2563691958890568 0.35453686365791626 1.8728782534710784 -11.208565663299746 33.386881150232384 -72.28987728555359 -3.4096535079854142 23.82740092334481 0 0 0 0 0 0 2.837937307357202 7.553851132451248 0.4514431164812024 14.599761518542694 6.79009583589331 -9.822403251453217 4.874187699883383 -0.6102421404607529 -15.45490595150704 -35.11690465781615 -1.234229209154158 -2.15637228019725 10.542427168654783 -1.9929060765744804 43.16919062624998 0 0 0 0 0 0 -22.730016051530963 2.7183150166788415 9.92053184450724 -1.0623171436798695 1.9079220735742808 -4.285975175651737 -13.68861832160605 6.484430832087723 7.103086354356506 0 0 0 -25.514203119186178 1.7921632208931675 19.595831003202083 4.003535410011615 0.25648088116665346 -2.9815938976978993 -11.233654899404863 -4.084848596638774 7.980731144255655 0 0 0 18.639096591892415 -6.116413136907718 -16.23525100322331 0 0 0 0 0 0 0 0 0 0 0 0 0 0 0 
34.720585047634906 -8.341030345709232 257.25523871152103 18.8534378808552 3.4373239030731875 -13.388148386019393 24.591554541659708 5.159142967708305 -15.642604586331412 31.70789000448729 6.0892047525000885 -14.84587595302716 30.571615302561344 5.425553710789589 -16.949552687309456 5.059053104331616 -3.6937096757371326 5.691270471384648 23.641070497540625 -0.7655047111561863 -14.66599882480322 15.471961853803544 1.2422482928683833 0.45786081993839695 3.4217152601440346 -11.714476494329414 32.033076883593324 -70.30645956366284 -3.7833844631521725 23.534701872126945 0 0 0 0 0 0 2.8841515961403155 7.342125282317631 0.7126019494822674 13.798187885194553 6.449458905951829 -9.537333180474706 5.276630406331101 -0.5077689680035705 -15.660479071353356 -34.310678220144204 -1.1865298138648528 -2.627758499430959 10.677868342838643 -2.7948641159908734 42.520857498181655 0 0 0 0 0 0 -22.35994081313807 2.6111749259474686 9.569018837671301 -1.1185378050986388 1.8688168320295535 -4.17257878762274 -14.186339705283492 6.454863056433534 7.086289977718066 0 0 0 -25.10196246703639 1.6915999456310387 19.194124634620366 3.996736376322957 0.2447484173549995 -2.943381525339886 -11.703798615974344 -4.383570305798897 8.110234423530796 0 0 0 17.729881436691368 -6.328459043873438 -15.189341013585418 0 0 0 0 0 0 0 0 0 0 0 0 0 0 0 
